<svg viewBox="0 0 36 36" xmlns="http://www.w3.org/2000/svg">
  <path d="M0 0h36v36H0z" fill="#452a17" />
  <path
    d="M27 12H9c-1.1 0-2 .9-2 2v8c0 1.1.9 2 2 2h18c1.1 0 2-.9 2-2v-8c0-1.1-.9-2-2-2zm-11 7h-2v2c0 .55-.45 1-1 1s-1-.45-1-1v-2h-2c-.55 0-1-.45-1-1s.45-1 1-1h2v-2c0-.55.45-1 1-1s1 .45 1 1v2h2c.55 0 1 .45 1 1s-.45 1-1 1zm5.5 2c-.83 0-1.5-.67-1.5-1.5s.67-1.5 1.5-1.5 1.5.67 1.5 1.5-.67 1.5-1.5 1.5zm4-3c-.83 0-1.5-.67-1.5-1.5s.67-1.5 1.5-1.5 1.5.67 1.5 1.5-.67 1.5-1.5 1.5z"
    fill="#fff"
  />
</svg>
