<svg width="24" height="24" xmlns="http://www.w3.org/2000/svg">
  <path d="M0 0h24v24H0z" fill="#24292f" />
  <path
    d="M11.976 4C7.566 4 4 7.592 4 12.035a8.029 8.029 0 0 0 5.454 7.623c.396.08.541-.173.541-.385 0-.187-.013-.825-.013-1.49-2.219.479-2.68-.958-2.68-.958-.357-.932-.886-1.171-.886-1.171-.726-.492.053-.492.053-.492.806.053 1.229.825 1.229.825.713 1.223 1.862.878 2.324.665.066-.52.277-.878.502-1.078-1.77-.186-3.632-.878-3.632-3.964 0-.878.317-1.597.819-2.155-.08-.2-.357-1.025.079-2.13 0 0 .674-.212 2.192.826a7.669 7.669 0 0 1 1.994-.266c.674 0 1.36.093 1.994.266 1.519-1.038 2.192-.825 2.192-.825.436 1.104.159 1.929.08 2.129.515.558.818 1.277.818 2.155 0 3.086-1.862 3.764-3.644 3.964.29.253.54.732.54 1.49 0 1.078-.012 1.942-.012 2.209 0 .212.145.465.541.385a8.03 8.03 0 0 0 5.454-7.623C19.952 7.592 16.374 4 11.976 4Z"
    fill="#fff"
  />
</svg>
