<svg width="24" height="24" xmlns="http://www.w3.org/2000/svg">
  <path d="M0 0h24v24H0z" fill="#ff0069" />
  <path
    d="M8.687 4.056c-.851.04-1.433.176-1.94.376-.527.205-.973.48-1.416.925a3.919 3.919 0 0 0-.92 1.418c-.197.509-.33 1.09-.368 1.942-.038.852-.046 1.126-.042 3.298.004 2.173.014 2.445.055 3.299.04.85.176 1.432.376 1.94.205.526.48.972.925 1.415a3.91 3.91 0 0 0 1.419.92c.509.197 1.09.331 1.942.368.852.038 1.126.046 3.298.042 2.171-.004 2.445-.014 3.298-.054.854-.04 1.432-.177 1.94-.376.526-.206.972-.48 1.415-.925.444-.446.717-.892.92-1.419.197-.509.331-1.09.368-1.942.037-.854.046-1.126.042-3.298-.004-2.173-.014-2.445-.054-3.298-.041-.853-.177-1.432-.376-1.941a3.927 3.927 0 0 0-.925-1.415 3.904 3.904 0 0 0-1.419-.92c-.509-.197-1.09-.331-1.942-.368-.852-.037-1.126-.046-3.298-.042-2.173.004-2.445.013-3.298.055Zm.093 14.462c-.78-.034-1.203-.163-1.486-.272a2.49 2.49 0 0 1-.92-.597 2.463 2.463 0 0 1-.6-.918c-.11-.283-.242-.706-.279-1.486-.04-.843-.048-1.096-.053-3.232-.004-2.135.004-2.388.04-3.232.034-.779.165-1.203.273-1.485.144-.374.317-.64.597-.921a2.47 2.47 0 0 1 .918-.6c.282-.11.705-.241 1.485-.278.844-.04 1.097-.048 3.232-.053 2.136-.005 2.389.003 3.233.04.78.034 1.204.164 1.485.272.374.144.64.317.921.597.281.28.455.545.6.92.111.28.242.703.279 1.483.04.844.049 1.097.053 3.232.004 2.136-.004 2.39-.04 3.232-.035.78-.164 1.204-.273 1.487a2.48 2.48 0 0 1-.597.92c-.28.282-.545.455-.919.6-.281.11-.705.242-1.484.279-.844.04-1.096.048-3.233.053-2.136.004-2.388-.004-3.232-.04Zm6.522-10.794a.96.96 0 1 0 1.92-.003.96.96 0 0 0-1.92.003Zm-7.41 4.284a4.107 4.107 0 1 0 8.215-.016 4.107 4.107 0 0 0-8.215.016Zm1.441-.003a2.667 2.667 0 1 1 5.334-.01 2.667 2.667 0 0 1-5.334.01Z"
    fill="#fff"
  />
</svg>
