<svg width="48" height="48" xmlns="http://www.w3.org/2000/svg">
  <path d="M0 0h48v48H0z" />
  <path
    d="M23.979 12c-6.301 0-11.468 4.86-11.957 11.037l6.432 2.658a3.387 3.387 0 0 1 1.912-.59c.063 0 .125.004.188.006l2.861-4.142v-.059a4.528 4.528 0 0 1 4.524-4.524c2.494 0 4.524 2.031 4.524 4.527s-2.03 4.525-4.524 4.525h-.105l-4.076 2.911c0 .052.004.105.004.159a3.392 3.392 0 0 1-3.39 3.396 3.412 3.412 0 0 1-3.331-2.727l-4.605-1.907c1.426 5.037 6.05 8.73 11.543 8.73 6.627 0 11.999-5.373 11.999-12s-5.373-12-11.999-12zM19.54 30.21l-1.473-.61c.262.543.714.999 1.314 1.25a2.551 2.551 0 0 0 3.337-3.324 2.547 2.547 0 0 0-3.255-1.413l1.523.63a1.878 1.878 0 0 1-1.445 3.467h-.001zm11.415-9.303a3.019 3.019 0 0 0-3.015-3.015 3.015 3.015 0 1 0 3.015 3.015zm-5.273-.005a2.264 2.264 0 1 1 4.531 0 2.267 2.267 0 0 1-2.266 2.265 2.264 2.264 0 0 1-2.265-2.265z"
    fill="#fff"
  />
</svg>
