<svg viewBox="0 0 96 96" xmlns="http://www.w3.org/2000/svg">
  <rect width="96" height="96" rx="16" fill="#f05f78" />
  <path
    d="M40 27.2c0-1.12 0-1.68-.218-2.108a2 2 0 00-.874-.874C38.48 24 37.92 24 36.8 24h-9.6c-1.12 0-1.68 0-2.108.218a2 2 0 00-.874.874C24 25.52 24 26.08 24 27.2v25.6c0 1.12 0 1.68.218 2.108a2 2 0 00.874.874C25.52 56 26.08 56 27.2 56h9.6c1.12 0 1.68 0 2.108.218a2 2 0 01.874.874C40 57.52 40 58.08 40 59.2v9.6c0 1.12 0 1.68.218 2.108a2 2 0 00.874.874C41.52 72 42.08 72 43.2 72h9.6c1.12 0 1.68 0 2.108-.218a2 2 0 00.874-.874C56 70.48 56 69.92 56 68.8v-9.6c0-1.12 0-1.68.218-2.108a2 2 0 01.874-.874C57.52 56 58.08 56 59.2 56h9.6c1.12 0 1.68 0 2.108-.218a2 2 0 00.874-.874C72 54.48 72 53.92 72 52.8V27.2c0-1.12 0-1.68-.218-2.108a2 2 0 00-.874-.874C70.48 24 69.92 24 68.8 24h-9.6c-1.12 0-1.68 0-2.108.218a2 2 0 00-.874.874C56 25.52 56 26.08 56 27.2v9.6c0 1.12 0 1.68-.218 2.108a2 2 0 01-.874.874C54.48 40 53.92 40 52.8 40h-9.6c-1.12 0-1.68 0-2.108-.218a2 2 0 01-.874-.874C40 38.48 40 37.92 40 36.8v-9.6z"
    fill="#fff"
  />
</svg>
