<svg width="128" height="128" xmlns="http://www.w3.org/2000/svg">
  <path
    d="M62.586 0h2.828l1.96 1.96a1 1 0 0 1-1.414 1.414L64 1.414l-1.96 1.96a1 1 0 1 1-1.414-1.414L62.586 0ZM0 65.414v-2.828l1.96-1.96a1 1 0 0 1 1.414 1.414L1.414 64l1.96 1.96a1 1 0 1 1-1.414 1.414L0 65.414ZM9 128H0v-3h3v-5.25a.75.75 0 0 1 .75-.75h4.5a.75.75 0 0 1 .75.75V128ZM65.414 128h-2.828l-1.96-1.96a1 1 0 1 1 1.414-1.414l1.96 1.96 1.96-1.96a1 1 0 0 1 1.414 1.414l-1.96 1.96ZM128 125v3h-9v-8.25a.75.75 0 0 1 .75-.75h4.5a.75.75 0 0 1 .75.75V125h3ZM128 62.586v2.828l-1.96 1.96a1 1 0 1 1-1.414-1.414l1.96-1.96-1.96-1.96a1 1 0 0 1 1.414-1.414l1.96 1.96ZM128 9h-2.25a.75.75 0 0 1-.75-.75V3h-5.25a.75.75 0 0 1-.75-.75V0h9v9ZM0 9V0h9v2.25a.75.75 0 0 1-.75.75H3v5.25a.75.75 0 0 1-.75.75H0ZM71.293 7.293a1 1 0 0 1 1.414 0l5.333 5.333a1 1 0 1 1-1.414 1.414l-5.333-5.333a1 1 0 0 1 0-1.414ZM56.707 8.707a1 1 0 0 0-1.414-1.414l-5.333 5.333a1 1 0 1 0 1.414 1.414l5.333-5.333ZM81.96 17.96a1 1 0 0 1 1.414 0l5.333 5.333a1 1 0 0 1-1.414 1.414l-5.333-5.333a1 1 0 0 1 0-1.414ZM46.04 19.374a1 1 0 1 0-1.414-1.414l-5.333 5.333a1 1 0 0 0 1.414 1.414l5.333-5.333ZM92.626 28.626a1 1 0 0 1 1.414 0l5.334 5.334a1 1 0 0 1-1.414 1.414l-5.334-5.334a1 1 0 0 1 0-1.414ZM35.374 30.04a1 1 0 0 0-1.414-1.414l-5.334 5.334a1 1 0 0 0 1.414 1.414l5.334-5.334ZM24.707 39.293a1 1 0 0 1 0 1.414l-5.333 5.333a1 1 0 1 1-1.414-1.414l5.333-5.333a1 1 0 0 1 1.414 0ZM104.707 39.293a1 1 0 1 0-1.414 1.414l5.333 5.333a1 1 0 1 0 1.414-1.414l-5.333-5.333ZM113.96 49.96a1 1 0 0 1 1.414 0l5.333 5.333a1 1 0 1 1-1.414 1.414l-5.333-5.333a1 1 0 0 1 0-1.414ZM14.04 51.374a1 1 0 1 0-1.414-1.414l-5.333 5.333a1 1 0 1 0 1.414 1.414l5.333-5.333ZM7.293 71.293a1 1 0 0 1 1.414 0l5.333 5.333a1 1 0 1 1-1.414 1.414l-5.333-5.333a1 1 0 0 1 0-1.414ZM120.707 72.707a1 1 0 1 0-1.414-1.414l-5.333 5.333a1 1 0 1 0 1.414 1.414l5.333-5.333ZM110.04 81.96a1 1 0 0 1 0 1.414l-5.333 5.333a1 1 0 1 1-1.414-1.414l5.333-5.333a1 1 0 0 1 1.414 0ZM19.374 81.96a1 1 0 1 0-1.414 1.414l5.333 5.333a1 1 0 0 0 1.414-1.414l-5.333-5.333ZM28.626 92.626a1 1 0 0 1 1.414 0l5.334 5.334a1 1 0 0 1-1.414 1.414l-5.334-5.334a1 1 0 0 1 0-1.414ZM99.374 94.04a1 1 0 0 0-1.414-1.414l-5.334 5.334a1 1 0 0 0 1.414 1.414l5.334-5.334ZM39.293 103.293a1 1 0 0 1 1.414 0l5.333 5.333a1 1 0 1 1-1.414 1.414l-5.333-5.333a1 1 0 0 1 0-1.414ZM88.707 104.707a1 1 0 1 0-1.414-1.414l-5.333 5.333a1 1 0 1 0 1.414 1.414l5.333-5.333ZM49.96 113.96a1 1 0 0 1 1.414 0l5.333 5.333a1 1 0 1 1-1.414 1.414l-5.333-5.333a1 1 0 0 1 0-1.414ZM78.04 115.374a1 1 0 1 0-1.414-1.414l-5.333 5.333a1 1 0 1 0 1.414 1.414l5.333-5.333ZM55 55.75a.75.75 0 0 1 .75-.75h4.5a.75.75 0 0 1 .75.75V61h6v-5.25a.75.75 0 0 1 .75-.75h4.5a.75.75 0 0 1 .75.75v10.5a.75.75 0 0 1-.75.75H67v5.25a.75.75 0 0 1-.75.75h-4.5a.75.75 0 0 1-.75-.75V67h-5.25a.75.75 0 0 1-.75-.75v-10.5Z"
    fill="#fceeec"
    fill-opacity="0.72"
  />
</svg>
