<svg viewBox="0 0 120 120" xmlns="http://www.w3.org/2000/svg">
  <path
    d="M120 6V0H114V1.2C114 1.48003 114 1.62004 114.054 1.727C114.102 1.82108 114.179 1.89757 114.273 1.9455C114.38 2 114.52 2 114.8 2H117.2C117.48 2 117.62 2 117.727 2.0545C117.821 2.10243 117.898 2.17892 117.946 2.273C118 2.37996 118 2.51997 118 2.8V5.2C118 5.48003 118 5.62004 118.054 5.727C118.102 5.82108 118.179 5.89757 118.273 5.9455C118.38 6 118.52 6 118.8 6H120Z"
    fill="#9dcde6"
    fill-opacity="0.24"
  />
  <path
    d="M6 120H0V118H1.2C1.48003 118 1.62004 118 1.727 117.946C1.82108 117.898 1.89757 117.821 1.9455 117.727C2 117.62 2 117.48 2 117.2V114.8C2 114.52 2 114.38 2.0545 114.273C2.10243 114.179 2.17892 114.102 2.273 114.054C2.37996 114 2.51997 114 2.8 114H5.2C5.48003 114 5.62004 114 5.727 114.054C5.82108 114.102 5.89757 114.179 5.9455 114.273C6 114.38 6 114.52 6 114.8V120Z"
    fill="#9dcde6"
    fill-opacity="0.24"
  />
  <path
    d="M120 118V120H114V114.8C114 114.52 114 114.38 114.054 114.273C114.102 114.179 114.179 114.102 114.273 114.054C114.38 114 114.52 114 114.8 114H117.2C117.48 114 117.62 114 117.727 114.054C117.821 114.102 117.898 114.179 117.946 114.273C118 114.38 118 114.52 118 114.8V117.2C118 117.48 118 117.62 118.054 117.727C118.102 117.821 118.179 117.898 118.273 117.946C118.38 118 118.52 118 118.8 118H120Z"
    fill="#9dcde6"
    fill-opacity="0.24"
  />
  <path
    d="M0 6V0H6V1.2C6 1.48003 6 1.62004 5.9455 1.727C5.89757 1.82108 5.82108 1.89757 5.727 1.9455C5.62004 2 5.48003 2 5.2 2H2.8C2.51997 2 2.37996 2 2.273 2.0545C2.17892 2.10243 2.10243 2.17892 2.0545 2.273C2 2.37996 2 2.51997 2 2.8V5.2C2 5.48003 2 5.62004 1.9455 5.727C1.89757 5.82108 1.82108 5.89757 1.727 5.9455C1.62004 6 1.48003 6 1.2 6H0Z"
    fill="#9dcde6"
    fill-opacity="0.24"
  />
  <path
    d="M58 54.8C58 54.52 58 54.38 57.9455 54.273C57.8976 54.1789 57.8211 54.1024 57.727 54.0545C57.62 54 57.48 54 57.2 54H54.8C54.52 54 54.38 54 54.273 54.0545C54.1789 54.1024 54.1024 54.1789 54.0545 54.273C54 54.38 54 54.52 54 54.8V61.2C54 61.48 54 61.62 54.0545 61.727C54.1024 61.8211 54.1789 61.8976 54.273 61.9455C54.38 62 54.52 62 54.8 62H57.2C57.48 62 57.62 62 57.727 62.0545C57.8211 62.1024 57.8976 62.1789 57.9455 62.273C58 62.38 58 62.52 58 62.8V65.2C58 65.48 58 65.62 58.0545 65.727C58.1024 65.8211 58.1789 65.8976 58.273 65.9455C58.38 66 58.52 66 58.8 66H61.2C61.48 66 61.62 66 61.727 65.9455C61.8211 65.8976 61.8976 65.8211 61.9455 65.727C62 65.62 62 65.48 62 65.2V62.8C62 62.52 62 62.38 62.0545 62.273C62.1024 62.1789 62.1789 62.1024 62.273 62.0545C62.38 62 62.52 62 62.8 62H65.2C65.48 62 65.62 62 65.727 61.9455C65.8211 61.8976 65.8976 61.8211 65.9455 61.727C66 61.62 66 61.48 66 61.2V54.8C66 54.52 66 54.38 65.9455 54.273C65.8976 54.1789 65.8211 54.1024 65.727 54.0545C65.62 54 65.48 54 65.2 54H62.8C62.52 54 62.38 54 62.273 54.0545C62.1789 54.1024 62.1024 54.1789 62.0545 54.273C62 54.38 62 54.52 62 54.8V57.2C62 57.48 62 57.62 61.9455 57.727C61.8976 57.8211 61.8211 57.8976 61.727 57.9455C61.62 58 61.48 58 61.2 58H58.8C58.52 58 58.38 58 58.273 57.9455C58.1789 57.8976 58.1024 57.8211 58.0545 57.727C58 57.62 58 57.48 58 57.2V54.8Z"
    fill="#edb9bd"
    fill-opacity="0.24"
  />
</svg>
