<svg viewBox="0 0 240 24" xmlns="http://www.w3.org/2000/svg">
  <path
    d="M96 11.5a.5.5 0 00-.5-.5H.5a.5.5 0 00-.5.5v1a.5.5 0 00.5.5h95a.5.5 0 00.5-.5v-1zM240 11.5a.5.5 0 00-.5-.5h-95a.5.5 0 00-.5.5v1a.5.5 0 00.5.5h95a.5.5 0 00.5-.5v-1z"
    fill="#e5bfa7"
  />
  <path
    d="M118 6.8c0-.28 0-.42-.054-.527a.502.502 0 00-.219-.218C117.62 6 117.48 6 117.2 6h-2.4c-.28 0-.42 0-.527.054a.502.502 0 00-.219.219C114 6.38 114 6.52 114 6.8v6.4c0 .28 0 .42.054.527.048.094.125.17.219.218.107.055.247.055.527.055h2.4c.28 0 .42 0 .527.055a.502.502 0 01.219.218c.054.107.054.247.054.527v2.4c0 .28 0 .42.054.527.048.094.125.17.219.218.107.055.247.055.527.055h2.4c.28 0 .42 0 .527-.055a.502.502 0 00.219-.218c.054-.107.054-.247.054-.527v-2.4c0-.28 0-.42.054-.527a.502.502 0 01.219-.218c.107-.055.247-.055.527-.055h2.4c.28 0 .42 0 .527-.055a.502.502 0 00.219-.218c.054-.107.054-.247.054-.527V6.8c0-.28 0-.42-.054-.527a.502.502 0 00-.219-.218C125.62 6 125.48 6 125.2 6h-2.4c-.28 0-.42 0-.527.054a.502.502 0 00-.219.219C122 6.38 122 6.52 122 6.8v2.4c0 .28 0 .42-.054.527a.502.502 0 01-.219.218c-.107.055-.247.055-.527.055h-2.4c-.28 0-.42 0-.527-.055a.502.502 0 01-.219-.218C118 9.62 118 9.48 118 9.2V6.8z"
    fill="#c28254"
  />
</svg>
